inDegrees=no
num_controls=7
num_derivatives=13
num_iterations=99
num_multipliers=7
num_parameters=0
num_slacks=7
num_states=26
objective=0.453902
objective_accelerations=0.048407
objective_balance=0.000939
objective_effort=0.037832
objective_height=0.360744
objective_ligament=0.005980
solver_duration=1226.727451
status=Solve_Succeeded
success=true
DataType=double
version=3
OpenSimVersion=4.5
endheader
time	/jointset/ground_pelvis/pelvis_tilt/value	/jointset/ground_pelvis/pelvis_tx/value	/jointset/ground_pelvis/pelvis_ty/value	/jointset/hip_r/hip_flexion_r/value	/jointset/hip_r/hip_adduction_r/value	/jointset/hip_r/hip_rotation_r/value	/jointset/back/lumbar_extension/value	/jointset/patellofemoral_r/patellar_flexion_r/value	/jointset/knee_r/knee_flexion_r/value	/jointset/knee_r/knee_adduction_r/value	/jointset/knee_r/knee_rotation_r/value	/jointset/ankle_r/ankle_angle_r/value	/jointset/subtalar_r/subtalar_angle_r/value	/jointset/ground_pelvis/pelvis_tilt/speed	/jointset/ground_pelvis/pelvis_tx/speed	/jointset/ground_pelvis/pelvis_ty/speed	/jointset/hip_r/hip_flexion_r/speed	/jointset/hip_r/hip_adduction_r/speed	/jointset/hip_r/hip_rotation_r/speed	/jointset/back/lumbar_extension/speed	/jointset/patellofemoral_r/patellar_flexion_r/speed	/jointset/knee_r/knee_flexion_r/speed	/jointset/knee_r/knee_adduction_r/speed	/jointset/knee_r/knee_rotation_r/speed	/jointset/ankle_r/ankle_angle_r/speed	/jointset/subtalar_r/subtalar_angle_r/speed	/forceset/tau_hip_flexion_r	/forceset/tau_hip_adduction_r	/forceset/tau_hip_rotation_r	/forceset/tau_knee_flexion_r	/forceset/tau_ankle_angle_r	/forceset/tau_subtalar_angle_r	/forceset/tau_lumbar_extension	lambda_cid13_p0	lambda_cid14_p0	lambda_cid14_p1	lambda_cid14_p2	lambda_cid14_p3	lambda_cid14_p4	lambda_cid14_p5	/jointset/ground_pelvis/pelvis_tilt/accel	/jointset/ground_pelvis/pelvis_tx/accel	/jointset/ground_pelvis/pelvis_ty/accel	/jointset/hip_r/hip_flexion_r/accel	/jointset/hip_r/hip_adduction_r/accel	/jointset/hip_r/hip_rotation_r/accel	/jointset/back/lumbar_extension/accel	/jointset/patellofemoral_r/patellar_flexion_r/accel	/jointset/knee_r/knee_flexion_r/accel	/jointset/knee_r/knee_adduction_r/accel	/jointset/knee_r/knee_rotation_r/accel	/jointset/ankle_r/ankle_angle_r/accel	/jointset/subtalar_r/subtalar_angle_r/accel	gamma_cid13_p0	gamma_cid14_p0	gamma_cid14_p1	gamma_cid14_p2	gamma_cid14_p3	gamma_cid14_p4	gamma_cid14_p5
1.5	-0.07761268670043842	0.03327373736007824	0.8171508400609868	0.8042760863041165	-0.2360951539239802	-0.09607048980234138	-0.6254911784194929	0.9450039550328643	0.9450039550329348	0.0002226468525706793	0.1745270083582664	0.3025905084376	0.1208176413801647	0.4487125056408417	0.218534140258651	0.5065419753166177	-1.993746854079921	0.04278951399790736	-0.3766462341948467	0.7981920983752565	-1.984174421785624	-1.984174421785633	0.2384836181594217	1.442825137720917e-06	-0.5240297192479769	-0.126192604764917	-0.1552504760516553	0.002587451942478436	0.02587679526020979	-0.3120905251337553	0.01856425692027927	-0.009581977044836371	0.2103123186933455	-8.676080130051881	-36.63403311225977	-9.778235104459446	1.069833348275239	-3.181446949450713	-630.7788498826147	60.45636796843701	0.1391739274589809	0.565308096606884	-0.5049544113988131	-0.9774490536244144	-0.0329416285482572	-0.02293258192936599	1.78800327270058	-1.328048652707459	-1.328048652707442	0.8385595390595914	-0.04925325043720567	-0.6267766633768995	-0.1873388380441674	8.219173727592616e-08	-8.26849289098698e-08	-2.109307005705093e-06	-2.48105154237489e-07	2.581799500948346e-07	1.615975119537023e-07	-1.387712920486047e-06
1.51	-0.07311897013231058	0.03548711554421	0.8221899925280156	0.7842918498982663	-0.2356694150952503	-0.09984068514178145	-0.6174212574832776	0.9250981477465243	0.9250981477465653	0.002647979750488337	0.1745268506381392	0.2973195220930153	0.1195459283126731	0.4499654607107916	0.2241149907273107	0.5011824973472599	-2.00283995908818	0.04234009954444425	-0.3773946582225891	0.8156825806061835	-1.996713437065641	-1.996713437065666	0.2465649236457494	-2.692876398215054e-05	-0.5300858822617075	-0.1281400076023306	-0.1482299446601041	0.0008813214963162052	0.02562055532993941	-0.308015992001606	0.02020273126340618	-0.01007405781998496	0.2037996014341864	-9.730221069690707	-35.82516797201301	-9.710872337979794	0.8998113352189651	-3.28972899811442	-626.0027689755149	60.37512545843676	0.1085350970889554	0.5505550713366055	-0.5673258997276657	-0.8361926558522861	-0.05390526749923186	-0.1009984245095709	1.713144459082212	-1.175795390659773	-1.175795390662282	0.7899155416768223	0.02108109648784028	-0.5827290560198686	-0.197356774342455	5.166401330446012e-08	-1.217394690199781e-07	-2.105799446405018e-06	-5.652370204365356e-07	2.772852266826568e-07	1.265573131241956e-07	-1.347102339835413e-06
1.52	-0.06861468825341845	0.03775551854289647	0.827172373933346	0.764224492156047	-0.2352487631938056	-0.1036184049437616	-0.6091797169725947	0.9050751568223815	0.9050751568223944	0.005153525600916868	0.1745265512440517	0.2919904355311635	0.118254958063257	0.4508255677937821	0.2295391031695931	0.495187762976966	-2.010371121353464	0.04177212854082479	-0.3781511267028478	0.8325160132688519	-2.0076111493461	-2.007611149346142	0.2545262086623757	-2.689196761318356e-05	-0.5356497627013876	-0.1300440411498449	-0.1412094132685611	-0.0008248089498461875	0.02536431539968862	-0.3039414588694563	0.02184120560653412	-0.0105661385951326	0.19728688417502	-10.79386043413226	-35.01741822484584	-9.641896216108025	0.7274672079201749	-3.402940740171349	-621.2428140835169	60.3090856595885	0.06060433006713633	0.5339604913313872	-0.6320056915860601	-0.6650605050294333	-0.05665293857952979	-0.02454147243264595	1.65659335904889	-0.9997880527961932	-0.9997880527961681	0.814555445119308	-0.04357157333943983	-0.5283201485668585	-0.1786649800643431	3.391562643101975e-08	-1.4643018129337e-07	-2.117242044467561e-06	-7.713114383120019e-07	2.900316645803816e-07	1.051078297812832e-07	-1.312196228563139e-06
1.53	-0.06410382104377468	0.04007730624240714	0.8320916824788368	0.7440897715622189	-0.2348342260946336	-0.1074039647205547	-0.6007732468155458	0.884951497082254	0.8849514970822889	0.007737668961609734	0.1745263695312118	0.2866082579663208	0.116945442235283	0.4512795338262848	0.2347843282404556	0.4885733617642489	-2.016299612061467	0.04112263222923621	-0.3789626314624804	0.8486527393525602	-2.016833549344603	-2.01683354934455	0.2622712333768067	-8.701743098384516e-06	-0.5406975669999409	-0.1318394244334615	-0.1341505764904099	-0.002570983017381226	0.0250238680690383	-0.2999794522330697	0.02345512484854947	-0.01107650308906465	0.1907258810157161	-11.85724810472006	-34.23300890117242	-9.585528783261289	0.5577962734925547	-3.464053430450871	-616.6677405532955	60.24958859364743	0.02752026276759574	0.5147470868206603	-0.6912261204592179	-0.5157599833233192	-0.0712774486403145	-0.1096758414285217	1.573420414812442	-0.8403840757089638	-0.8403840756947565	0.7494786929449304	0.02439888940737979	-0.479724883951251	-0.1774656895447431	2.974528522423155e-08	-1.558593264902506e-07	-2.144569184727886e-06	-8.593873173436652e-07	2.960218363698781e-07	9.80984816428773e-08	-1.283351116005372e-06
1.54	-0.05959046866922121	0.04245053490699775	0.8369418332553314	0.7239039627353817	-0.2344266198528156	-0.1111976837176843	-0.5922091677613039	0.8647442297216759	0.8647442297217327	0.01039826311111564	0.1745263466344289	0.2811782594958022	0.1156184744370659	0.4513226007758201	0.2398272961855771	0.4813562091777453	-2.020588767954976	0.0403859570699749	-0.379782970770111	0.8640377927074976	-2.02433267343637	-2.024332673436223	0.2698163664248344	4.871243834352569e-06	-0.5452139438365626	-0.1335344351984555	-0.1270917397122667	-0.004317157084915403	0.02468342073838455	-0.2960174455966844	0.02506904409056575	-0.01158686758299514	0.1841648778564051	-12.91705077366338	-33.45060425515442	-9.529057838197634	0.3875906474759802	-3.525104976105921	-612.1188016178415	60.19853199699337	-0.02157548652630891	0.4935090661831273	-0.7525559663433302	-0.3371935421306226	-0.07408870811407177	-0.02630838203224864	1.506258813294699	-0.6551328714489133	-0.6551328714489355	0.7745771118386146	-0.04449502085585175	-0.4220346561806307	-0.158590476339812	2.661831897568567e-08	-1.654323304071912e-07	-2.186198983062802e-06	-9.492417986827187e-07	3.03246113636137e-07	9.147407919966164e-08	-1.258037470105281e-06
1.55	-0.05507877018958809	0.04487311495816677	0.841716863477517	0.7036835685872307	-0.2340267230231094	-0.1149998087841766	-0.5834951892296755	0.8444707038712236	0.8444707038712045	0.01313307743134999	0.174526508031542	0.2757058328504035	0.1142752227739827	0.4509461521444298	0.2446474907041746	0.4735556081657382	-2.023203843396782	0.03958041729228142	-0.3806290590413349	0.8786116788518189	-2.030068521887612	-2.030068521887555	0.2771218853275381	2.297908204444762e-05	-0.5491769101569481	-0.1350961037601658	-0.1199266595989151	-0.006129762133323656	0.0242591584683833	-0.29231613367799	0.02686543670866892	-0.01213117530330821	0.1775183584705652	-13.96882513661663	-32.62775694314604	-9.484760586514851	0.224480260359353	-3.589077413991215	-607.7888575670144	60.16856623454775	-0.05634502783822137	0.4701544821657676	-0.8079298607987605	-0.180759363388206	-0.08606282828047528	-0.1117816406492904	1.411018300077088	-0.4872193418337819	-0.4872193418474219	0.7045052546914479	0.02404041612363226	-0.3691946775039601	-0.1524721478958413	2.469350213554933e-08	-1.751710845885487e-07	-2.244307930918442e-06	-1.041145539202026e-06	3.118922950386656e-07	8.529320114438255e-08	-1.236792687962945e-06
1.56	-0.05057296929154812	0.0473426729220152	0.8464110641511485	0.6834456047210234	-0.2336353368343166	-0.1188099992515778	-0.5746398588795887	0.824148937834285	0.8241489378341889	0.01594014013565145	0.1745266658530296	0.2701966231302938	0.1129168510049205	0.4501430844573289	0.2492228787214623	0.4651902994669576	-2.024102711565894	0.03868382888724813	-0.3813960509518323	0.8923081563991933	-2.033980710733732	-2.033980710733767	0.2842660432384502	4.156118822485453e-06	-0.5525705587787924	-0.1365584563942443	-0.1127615794855712	-0.007942367181732886	0.02383489619838618	-0.2886148217592967	0.0286618293267724	-0.01267548302362263	0.1708718390847185	-15.00914161360821	-31.80735374209998	-9.441427164375817	0.06213652831620718	-3.649108860659772	-603.4893779843508	60.13978376805498	-0.1068992976684112	0.4445477659211325	-0.8654975036980441	0.006047912408054892	-0.09229843358203617	-0.01048910988694282	1.330777093905335	-0.2904009504247552	-0.2904009504247503	0.742304913480314	-0.05188118114226445	-0.3081711164724593	-0.1387272908134353	2.182223554744208e-08	-1.840983907168969e-07	-2.29026083015702e-06	-1.134348797828246e-06	3.181564468291339e-07	8.147889746306962e-08	-1.205279822758082e-06
1.57	-0.04607733534419184	0.04985667763945961	0.8510188724228726	0.6632073305499472	-0.2332532044136518	-0.1226278785212427	-0.5656521867541834	0.8037972384593884	0.8037972384593723	0.01881729141509943	0.1745266156372153	0.2646563864531225	0.1115446211697138	0.4489107799805463	0.2535283001440424	0.4562846164046924	-2.023250495128876	0.03773456920000036	-0.3821800491929147	0.9050578500085384	-2.036039671476598	-2.036039671476578	0.2911160610543431	-9.226439833905926e-06	-0.5553764129704449	-0.1378597355263499	-0.1055443838833715	-0.009756006854856685	0.02330853950061769	-0.2851301453691175	0.03052525178216565	-0.01324073045116793	0.1641881012237099	-16.03543421238583	-30.98756027570427	-9.410274613353279	-0.09486229853797684	-3.676665158384958	-599.4771859758712	60.13071258232672	-0.1423615896040933	0.4161393039212488	-0.9160984524857598	0.1700221011163909	-0.09782458516082103	-0.112388358226123	1.22180269347984	-0.1157228076119586	-0.1157228076038367	0.6487616189936544	0.02439004126414611	-0.2516739938048613	-0.1221806731321057	1.776790677437118e-08	-1.920113867789836e-07	-2.321018668624271e-06	-1.229176454088106e-06	3.214430616045272e-07	8.06228117492144e-08	-1.160931853725059e-06
1.58	-0.04159621755498843	0.05241225656582869	0.855535024914975	0.642986621261593	-0.2328808815596325	-0.1264536044087197	-0.5565420702528786	0.7834345336427856	0.7834345336428487	0.02176142515337722	0.1745265229627103	0.2590911149493761	0.1101601080534415	0.44723985282693	0.2575377205063977	0.4468591435426291	-2.020589735021153	0.03672191555816533	-0.3829653745142862	0.9167970315791161	-2.036181799075246	-2.036181799075172	0.2976625350042307	-4.335618831010888e-06	-0.5575775240938261	-0.1390151126073753	-0.09832718828117847	-0.01156964652798082	0.02278218280283942	-0.2816454689789398	0.03238867423755933	-0.01380597787871335	0.1575043633626954	-17.04573687135992	-30.16955783240904	-9.381034508331675	-0.2497289811464606	-3.6993367837205	-595.4848944069471	60.11256106069714	-0.1946238330351377	0.3853475538761099	-0.9694554636576924	0.3677566465490034	-0.1049772244994845	-0.01075452594474512	1.128674686151852	0.09296567841849041	0.09296567841848882	0.6815961402792353	-0.04822650521041102	-0.1872225028182145	-0.1095468805974244	1.455571387901863e-08	-1.9874308862608e-07	-2.35070160539184e-06	-1.318277975223437e-06	3.2375188393303e-07	8.080841472270615e-08	-1.111851310640356e-06
